<svg xmlns="http://www.w3.org/2000/svg" viewBox="0 0 107 106"><defs><style>.cls-1{fill:#fff;stroke:#fff;}.cls-1,.cls-2{stroke-miterlimit:10;}.cls-2{fill:#4eadff;stroke:#4eadff;}</style></defs><title>Asset 3</title><g id="Layer_2" data-name="Layer 2"><g id="Layer_2-2" data-name="Layer 2"><path class="cls-1" d="M36.5,11.5s5-11,17-11,17,11,17,11,13-5,22,6,3,20,3,20,11,6,11,18-10,18-10,18,2,12-8,19-17,2-17,2-7,11-17,11-18-11-18-11-12,4-21-5-5-17-5-17a20.19,20.19,0,0,1-10-18,18,18,0,0,1,11-17s-4-15,5-22S36.5,11.5,36.5,11.5Z"/><path class="cls-2" d="M43.35,59.33c-.21-4.15.85-8.75,1.26-12.37l2.15-18.68.8-6.94s3.45-5.76,6.9,0l4.61,33.38L85.55,76.59S89,81.2,82.09,83.5L57.31,72.4l-8.24-3.69C44.9,66.84,43.55,63.3,43.35,59.33Z"/></g></g></svg>